<svg width="74" height="75" viewBox="0 0 74 75" fill="none" xmlns="http://www.w3.org/2000/svg">
<g clip-path="url(#clip0_422_392)">
<path d="M26.3317 33.3848C26.0233 32.4289 25.7458 31.5039 25.4375 30.5481C25.1292 29.5923 24.8517 28.6981 24.605 27.8039C24.3583 26.9406 24.1425 26.1389 23.9267 25.3989H23.865C23.5875 26.7248 23.2483 28.0506 22.8167 29.3764C22.3542 30.8564 21.8917 32.3981 21.3983 33.9398C20.9975 35.5122 20.5042 36.9614 20.0417 38.2564H27.8733C27.6883 37.6089 27.4417 36.8381 27.1642 36.0364C26.8867 35.2039 26.6092 34.3097 26.3317 33.3848ZM52.7867 32.4906C51.0908 32.3981 49.4875 33.2923 48.6858 34.8339C48.3158 35.5431 48.1 36.2831 48.0075 37.0539H54.5103C55.3119 37.0539 55.8978 37.0539 56.2677 37.0231C56.5144 36.9923 56.7611 36.9306 56.9769 36.7764V36.4681C56.9649 35.9312 56.8468 35.4019 56.6294 34.9109C56.4119 34.4198 56.0995 33.9766 55.7099 33.6069C55.3204 33.2372 54.8616 32.9482 54.3599 32.7566C53.8582 32.565 53.3235 32.4746 52.7867 32.4906ZM60.8958 1.22559H13.1042C5.85833 1.22559 0 7.08392 0 14.3298V60.2714C0 67.5173 5.85833 73.3756 13.1042 73.3756H60.8958C68.1417 73.3756 74 67.5173 74 60.2714V14.3298C74 7.08392 68.1417 1.22559 60.8958 1.22559ZM39.1892 52.1345H32.745C32.5292 52.1653 32.3133 52.0081 32.2517 51.7953L29.7233 44.3953H18.2533L15.91 51.672C15.8483 51.9495 15.6017 52.1345 15.3242 52.1037H9.5275C9.18833 52.1037 9.09583 51.9187 9.18833 51.5487L19.1167 23.0864C19.2092 22.7781 19.3017 22.5006 19.425 22.1306C19.5483 21.4831 19.61 20.8048 19.61 20.1264C19.5792 19.9723 19.7025 19.8181 19.8567 19.7873H27.8425C28.0583 19.7873 28.2125 19.8798 28.2433 20.0339L39.4975 51.6381C39.59 51.9773 39.5006 52.1345 39.1892 52.1345ZM63.3964 39.8289C63.3317 40.4117 63.3008 40.8464 63.27 41.1239C63.2392 41.3397 63.0572 41.5247 62.8383 41.5247C62.6533 41.5247 62.3142 41.5556 61.8208 41.5895C61.3306 41.6512 60.7417 41.6789 60.0356 41.6789C59.3264 41.6789 58.5833 41.5556 57.7847 41.5556H48.0106C48.1308 42.5114 48.4422 43.4673 48.9664 44.2998C49.5121 45.1296 50.2955 45.7755 51.2142 46.1528C52.4475 46.677 53.8073 46.9545 55.1639 46.9237C56.2431 46.8898 57.3192 46.8003 58.3675 46.5845C59.3094 46.4643 60.2324 46.226 61.1147 45.8753C61.2689 45.7551 61.3614 45.8137 61.3614 46.122V50.8426C61.3614 50.9628 61.3306 51.0893 61.2967 51.2095C61.2413 51.2952 61.1689 51.3687 61.0839 51.4253C60.0973 51.857 59.0798 52.1653 58.0006 52.3503C56.5483 52.6278 55.1022 52.7512 53.6222 52.7203C51.2758 52.7203 49.3056 52.3503 47.7022 51.6412C46.1938 50.9843 44.8617 49.9807 43.8142 48.712C42.8306 47.5095 42.1183 46.1528 41.6867 44.6728C41.2552 43.2103 41.0382 41.6929 41.0422 40.1681C41.0422 38.5062 41.2889 36.8689 41.8131 35.2656C42.3064 33.7239 43.0772 32.3056 44.1256 31.0414C45.1431 29.8081 46.4042 28.8214 47.8533 28.1123C49.3056 27.4031 51.0292 27.1564 53.0025 27.1564C54.6466 27.1181 56.2788 27.4445 57.7817 28.1123C59.0458 28.6673 60.1558 29.4998 61.0192 30.5789C61.8208 31.6273 62.4683 32.7989 62.8722 34.0939C63.27 35.3273 63.455 36.5914 63.455 37.8556C63.455 38.5956 63.4242 39.2431 63.3964 39.8289Z" fill="#F8F8F8"/>
</g>
<defs>
<clipPath id="clip0_422_392">
<rect width="74" height="74" fill="white" transform="translate(0 0.324219)"/>
</clipPath>
</defs>
</svg>
