<svg width="75" height="74" viewBox="0 0 75 74" fill="none" xmlns="http://www.w3.org/2000/svg">
<path d="M36.8041 35.1499H29.1451V22.9029H38.2841C42.9461 22.9029 45.5361 24.9749 45.5361 28.7859C45.5361 32.9299 42.4651 35.1499 36.8041 35.1499ZM38.1731 39.3309H29.1451V52.7989H38.6171C44.3891 52.7989 47.4231 50.4679 47.4231 46.0279C47.4231 41.5879 44.2781 39.3309 38.1731 39.3309ZM74.5811 12.2469V61.7529C74.5811 68.4499 69.0311 73.9999 62.3341 73.9999H12.8281C6.13105 73.9999 0.581055 68.4499 0.581055 61.7529V12.2469C0.581055 5.54988 6.13105 -0.00012207 12.8281 -0.00012207H62.3341C69.0311 -0.00012207 74.5811 5.54988 74.5811 12.2469ZM52.3811 46.2499C52.3811 41.1439 48.9771 37.4809 43.7601 36.8149V36.5929C47.4601 35.9269 50.3831 32.2269 50.3831 28.2309C50.3831 22.4959 45.9431 18.6849 39.4311 18.6849H24.3721V57.0169H39.3201C47.4971 57.0169 52.3811 52.9839 52.3811 46.2499Z" fill="#F8F8F8"/>
</svg>
