<svg width="31" height="30" viewBox="0 0 31 30" fill="none" xmlns="http://www.w3.org/2000/svg">
<path d="M18.35 14.9174L30.5 2.76743C30.773 2.44859 30.9157 2.03847 30.8995 1.61901C30.8833 1.19955 30.7094 0.801647 30.4126 0.504823C30.1158 0.207998 29.7179 0.0341104 29.2984 0.0179084C28.879 0.00170651 28.4688 0.144384 28.15 0.417428L16 12.5674L3.85 0.400761C3.53116 0.127717 3.12103 -0.0149589 2.70157 0.00124298C2.28211 0.0174449 1.88422 0.191331 1.58739 0.488156C1.29057 0.78498 1.11668 1.18288 1.10048 1.60234C1.08428 2.0218 1.22695 2.43192 1.5 2.75076L13.65 14.9174L1.48333 27.0674C1.30886 27.2168 1.16716 27.4007 1.06712 27.6075C0.967082 27.8143 0.910865 28.0395 0.901999 28.269C0.893133 28.4985 0.93181 28.7274 1.0156 28.9413C1.09939 29.1552 1.22649 29.3494 1.38891 29.5118C1.55134 29.6743 1.74558 29.8014 1.95946 29.8852C2.17333 29.9689 2.40222 30.0076 2.63175 29.9988C2.86128 29.9899 3.08651 29.9337 3.29328 29.8336C3.50005 29.7336 3.68392 29.5919 3.83333 29.4174L16 17.2674L28.15 29.4174C28.4688 29.6905 28.879 29.8331 29.2984 29.8169C29.7179 29.8007 30.1158 29.6269 30.4126 29.33C30.7094 29.0332 30.8833 28.6353 30.8995 28.2158C30.9157 27.7964 30.773 27.3863 30.5 27.0674L18.35 14.9174Z" fill="white"/>
</svg>
