<svg width="50" height="50" viewBox="0 0 50 50" fill="none" xmlns="http://www.w3.org/2000/svg">
<path d="M1.78321 0.405223L3.61451 1.97659V9.05899H13.5139L14.8602 10.8059L13.5096 12.4673H3.61451V19.239L1.78321 20.8059L0 19.239V1.97208L1.78321 0.405223ZM7.13723 18.253H14.6853L15.9485 19.91L14.6022 21.6614H7.13723L5.91783 20.0451L7.13723 18.253ZM7.39947 0H14.5979L15.9441 1.74697L14.5979 3.40837H7.48688L6.04895 1.79649L7.39947 0ZM47.5175 3.36335L49.1302 5.15533L47.5175 6.95182H23.1425L21.5734 5.15533L23.1425 3.36335H47.5175ZM20.2666 10.8059L21.7876 9.4597L23.3129 10.8059V12.7826C23.3129 16.1008 24.1827 18.8339 28.0594 18.8339H28.8418C32.3251 18.8339 34.2395 16.4115 34.2395 12.6429V10.7609L35.7211 9.41468L37.2464 10.7159V12.7781C37.2464 16.1414 38.2036 18.6538 41.9493 18.6538H42.6005C46.2587 18.6538 46.91 15.7812 46.9536 12.6429V10.6258L48.4353 9.36966L50 10.6709V12.688C49.9563 17.0373 48.8242 22.0171 42.7316 22.0171H42.0804C38.4659 22.0171 36.5078 20.3557 35.7255 18.2936C34.812 20.4008 32.3732 22.2423 29.0646 22.2423H28.278C22.0104 22.2423 20.3146 18.3431 20.271 12.8681V10.8059H20.2666ZM32.7185 43.2733L31.8487 40.851L34.1128 40.1801L42.0804 43.8992V36.2314L43.6932 34.8401L45.3453 36.2314V45.5156L48.3042 46.9068L49.1302 49.149L46.8225 50L32.7185 43.2733ZM46.91 26.9023L49.0866 27.9334L48.3916 30.2207L28.798 39.5947L26.4466 38.6538L27.4038 36.3215L46.91 26.9023ZM18.6407 39.6848L20.5551 41.3012C20.3803 46.9969 15.6338 50 10.0218 50H9.45367C6.66521 50 3.40472 48.9239 1.31556 46.8618L1.52972 44.5745L3.57517 44.3044C5.10052 45.6506 7.23339 46.5916 9.23513 46.5916H9.84702C13.6364 46.5916 16.5516 44.9798 16.8575 41.1661L18.6407 39.6848ZM16.8532 35.9613C16.6783 32.0126 13.8068 30.4457 9.84265 30.4457H9.23076C6.87937 30.4457 5.09615 31.3868 3.5708 32.733L1.52972 32.4628L1.31119 30.1756C3.40034 28.0684 6.31555 27.0824 9.36626 27.0824H9.97377C15.6338 27.0824 20.3803 30.0451 20.5507 35.8261L18.6363 37.3975L16.8532 35.9613Z" fill="white"/>
</svg>
