<svg width="43" height="45" viewBox="0 0 43 45" fill="none" xmlns="http://www.w3.org/2000/svg">
<g clip-path="url(#clip0_77_149)">
<path fill-rule="evenodd" clip-rule="evenodd" d="M0 22.3801C0 33.2439 7.65106 42.2776 17.6577 44.1094V28.3273H12.3604V22.2581H17.6577V17.4016C17.6577 11.9388 21.0709 8.90509 25.8985 8.90509C27.4276 8.90509 29.0769 9.14728 30.606 9.38946V14.9743H27.8991C25.3087 14.9743 24.7207 16.3091 24.7207 18.0098V22.2581H30.3712L29.43 28.3273H24.7207V44.1094C34.7273 42.2776 42.3784 33.2457 42.3784 22.3801C42.3784 10.2945 32.8432 0.406738 21.1892 0.406738C9.53514 0.406738 0 10.2945 0 22.3801Z" fill="white"/>
</g>
<defs>
<clipPath id="clip0_77_149">
<rect width="42.3784" height="43.7027" fill="white" transform="translate(0 0.406738)"/>
</clipPath>
</defs>
</svg>
