<svg width="53" height="74" viewBox="0 0 53 74" fill="none" xmlns="http://www.w3.org/2000/svg">
<path d="M15.1966 73.9998C12.192 74.021 9.25497 73.1086 6.79131 71.3886C4.32765 69.6686 2.45899 67.2259 1.44353 64.398C0.428058 61.5702 0.315916 58.4967 1.12259 55.6024C1.92927 52.708 3.61495 50.1356 5.94671 48.2407C4.27147 46.8848 2.92042 45.1717 1.99234 43.2266C1.06426 41.2815 0.582613 39.1535 0.582613 36.9983C0.582613 34.8432 1.06426 32.7152 1.99234 30.7701C2.92042 28.825 4.27147 27.1119 5.94671 25.756C3.61206 23.8627 1.92366 21.2906 1.11522 18.3955C0.306776 15.5004 0.418267 12.4256 1.43426 9.59667C2.45025 6.76774 4.3205 4.3246 6.78614 2.60538C9.25177 0.886166 12.1909 -0.0240866 15.1966 0.000611695H37.8033C40.8091 -0.0240866 43.7482 0.886166 46.2138 2.60538C48.6794 4.3246 50.5497 6.76774 51.5657 9.59667C52.5817 12.4256 52.6932 15.5004 51.8847 18.3955C51.0763 21.2906 49.3879 23.8627 47.0532 25.756C49.3872 27.6499 51.0749 30.2224 51.8829 33.1174C52.6909 36.0125 52.5793 39.0871 51.5635 41.9159C50.5476 44.7448 48.6778 47.188 46.2127 48.9077C43.7476 50.6274 40.809 51.5386 37.8033 51.5151C34.958 51.5186 32.1738 50.6904 29.7929 49.1323V59.4922C29.7763 63.3501 28.2303 67.0439 25.494 69.7636C22.7577 72.4832 19.0545 74.0066 15.1966 73.9998ZM15.1152 51.5188C13.5453 51.5436 12.0177 52.0318 10.7243 52.9221C9.43098 53.8123 8.42956 55.0649 7.84587 56.5225C7.26219 57.9801 7.12227 59.5777 7.4437 61.1146C7.76513 62.6515 8.53357 64.0591 9.65248 65.1606C10.7714 66.2621 12.1909 67.0084 13.7326 67.3057C15.2743 67.603 16.8695 67.4381 18.3178 66.8317C19.7661 66.2252 21.0029 65.2043 21.8727 63.8971C22.7426 62.59 23.2068 61.055 23.207 59.4848V51.5188H15.1115H15.1152ZM37.807 29.0342C36.2333 29.0422 34.6971 29.5162 33.3925 30.3964C32.0879 31.2766 31.0732 32.5235 30.4765 33.9798C29.8798 35.4361 29.7278 37.0365 30.0398 38.5791C30.3517 40.1216 31.1136 41.5372 32.2293 42.6472C33.345 43.7572 34.7644 44.5119 36.3086 44.816C37.8527 45.1201 39.4523 44.9599 40.9055 44.3558C42.3588 43.7517 43.6005 42.7307 44.474 41.4216C45.3475 40.1125 45.8137 38.574 45.8137 37.0002C45.8059 34.8822 44.958 32.8538 43.4562 31.3603C41.9544 29.8668 39.9214 29.0302 37.8033 29.0342H37.807ZM15.2003 29.0342C13.0876 29.0229 11.0569 29.8513 9.55502 31.3373C8.05313 32.8232 7.20303 34.8449 7.19174 36.9576C7.18046 39.0704 8.00891 41.101 9.49485 42.6029C10.9808 44.1048 13.0025 44.9549 15.1152 44.9662H23.207V29.0342H15.2003ZM29.7929 6.54954V22.4853H37.7996C39.8605 22.4949 41.8451 21.7061 43.3371 20.2844C44.8292 18.8628 45.7128 16.9186 45.8026 14.8596V16.4691V14.5155C45.7938 12.3998 44.9472 10.3737 43.448 8.88069C41.9488 7.38773 39.9191 6.54952 37.8033 6.54954H29.7929ZM15.1929 6.54954C13.0802 6.54954 11.054 7.38881 9.56008 8.88273C8.06617 10.3766 7.22689 12.4028 7.22689 14.5155C7.22689 16.6283 8.06617 18.6544 9.56008 20.1484C11.054 21.6423 13.0802 22.4816 15.1929 22.4816H23.207V6.54954H15.1929Z" fill="#F8F8F8"/>
</svg>
