<svg width="76" height="75" viewBox="0 0 76 75" fill="none" xmlns="http://www.w3.org/2000/svg">
<path fill-rule="evenodd" clip-rule="evenodd" d="M37.9359 0.675781C16.9763 0.675781 0 17.6521 0 38.6117C0 55.3983 10.8591 69.5768 25.9387 74.6033C27.8354 74.9352 28.5467 73.7972 28.5467 72.8014C28.5467 71.9004 28.4993 68.9129 28.4993 65.7358C18.9679 67.4903 16.5021 63.4122 15.7434 61.2783C15.3166 60.1877 13.4672 56.8209 11.855 55.9199C10.5272 55.2086 8.63041 53.4541 11.8075 53.4066C14.795 53.3592 16.9289 56.157 17.6402 57.2951C21.0544 63.0329 26.5077 61.4206 28.689 60.4248C29.0209 57.9589 30.0168 56.2993 31.1074 55.3509C22.6667 54.4025 13.8466 51.1305 13.8466 36.62C13.8466 32.4945 15.3166 29.0803 17.735 26.4248C17.3557 25.4764 16.0279 21.5879 18.1144 16.3717C18.1144 16.3717 21.2915 15.3759 28.5467 20.2602C31.5816 19.4066 34.8062 18.9798 38.0307 18.9798C41.2553 18.9798 44.4798 19.4066 47.5147 20.2602C54.7699 15.3285 57.947 16.3717 57.947 16.3717C60.0335 21.5879 58.7058 25.4764 58.3264 26.4248C60.7448 29.0803 62.2148 32.4471 62.2148 36.62C62.2148 51.1779 53.3473 54.4025 44.9066 55.3509C46.2818 56.5364 47.4673 58.8125 47.4673 62.369C47.4673 67.4429 47.4198 71.521 47.4198 72.8014C47.4198 73.7972 48.1311 74.9827 50.0279 74.6033C57.5588 72.0607 64.1027 67.2206 68.7387 60.7642C73.3748 54.3078 75.8695 46.5601 75.8717 38.6117C75.8717 17.6521 58.8954 0.675781 37.9359 0.675781Z" fill="white"/>
</svg>
