<svg width="75" height="74" viewBox="0 0 75 74" fill="none" xmlns="http://www.w3.org/2000/svg">
<g clip-path="url(#clip0_421_90)">
<path d="M16.3694 0.00012207H19.7056V3.29621H22.7581V0.00012207H26.0942V9.97779H22.7581V6.63854H19.7056V9.97779H16.3725V0.00012207H16.3694ZM30.4787 3.30854H27.5434V0.00012207H36.7533V3.30854H33.8149V9.97779H30.4787V3.30854ZM38.2148 0.00012207H41.6928L43.8326 3.50587L45.9694 0.00012207H49.4474V9.97779H46.1266V5.03212L43.8326 8.58104H43.7741L41.477 5.03521V9.97779H38.2148V0.00012207ZM51.1062 0.00012207H54.4455V6.68171H59.1321V9.98087H51.1062V0.00012207Z" fill="#FDFDFD"/>
<path fill-rule="evenodd" clip-rule="evenodd" d="M16.2646 68.0554L9.95605 14.5442H65.4561L59.1445 68.0493L37.6752 74.0001L16.2646 68.0554ZM29.0203 38.7638L28.4221 32.0421H53.5359L54.1217 25.4808H21.2534L23.0232 45.3282H45.769L45.0074 53.8382L37.6876 55.8177H37.6814L30.3739 53.8444L29.9052 48.6119H23.3131L24.2319 58.9164L37.6752 62.6473L51.1401 58.9164L52.7805 40.5274L52.9408 38.7669H29.0203V38.7638Z" fill="#FDFDFD"/>
</g>
<defs>
<clipPath id="clip0_421_90">
<rect width="74" height="74" fill="white" transform="translate(0.706055 0.00012207)"/>
</clipPath>
</defs>
</svg>
