<svg width="74" height="75" viewBox="0 0 74 75" fill="none" xmlns="http://www.w3.org/2000/svg">
<path d="M32.4675 33.3535C32.1592 32.3977 31.8817 31.4727 31.5733 30.5168C31.265 29.561 30.9875 28.6668 30.7408 27.7727C30.4942 26.9093 30.2783 26.1077 30.0625 25.3677H30.0008C29.7233 26.6935 29.3842 28.0193 28.9525 29.3452C28.49 30.8252 28.0275 32.3668 27.5342 33.9085C27.1025 35.481 26.64 36.9302 26.1775 38.2252H34.0092C33.8242 37.5746 33.5775 36.8068 33.3 36.0021C33.0225 35.1727 32.745 34.2785 32.4675 33.3535ZM60.8958 1.19434H13.1042C5.85833 1.19434 0 7.05267 0 14.2985V60.2402C0 67.486 5.85833 73.3443 13.1042 73.3443H60.8958C68.1417 73.3443 74 67.486 74 60.2402V14.2985C74 7.05267 68.1417 1.19434 60.8958 1.19434ZM45.325 52.1618H38.8778C38.665 52.1927 38.4492 52.0385 38.3875 51.8227L35.8592 44.4843H24.3892L22.0458 51.7302C21.9842 52.0077 21.7375 52.1927 21.46 52.1649H15.6633C15.3242 52.1649 15.2317 51.9768 15.3242 51.6099L25.2525 23.0243C25.345 22.716 25.4375 22.3768 25.5608 22.0068C25.6842 21.3593 25.7458 20.681 25.7458 20.0027C25.715 19.8485 25.8383 19.6943 25.9925 19.6635H33.9783C34.225 19.6635 34.3483 19.756 34.3792 19.9102L45.6333 51.6685C45.7258 52.0046 45.6333 52.1618 45.325 52.1618ZM55.8083 51.6993C55.8083 52.0385 55.6881 52.1927 55.4106 52.1927H49.3642C49.0558 52.1927 48.9017 52.0046 48.9017 51.6993V27.9577C48.9017 27.6493 49.0281 27.526 49.3056 27.526H55.4106C55.6881 27.526 55.8083 27.6802 55.8083 27.9577V51.6993ZM55.1639 23.8568C54.7998 24.2267 54.3607 24.5143 53.8763 24.7004C53.3918 24.8865 52.8731 24.9669 52.355 24.936C51.3375 24.9668 50.3508 24.566 49.6077 23.8568C48.9013 23.0844 48.5251 22.0663 48.5594 21.0202C48.5286 19.9718 48.9294 18.9852 49.6663 18.276C50.4125 17.5668 51.3992 17.1968 52.4167 17.1968C53.6222 17.1968 54.5411 17.5668 55.2225 18.276C55.9008 19.016 56.2708 20.0027 56.24 21.0202C56.2708 22.0685 55.9008 23.086 55.1639 23.8568Z" fill="#F8F8F8"/>
</svg>
