<svg width="75" height="74" viewBox="0 0 75 74" fill="none" xmlns="http://www.w3.org/2000/svg">
<g clip-path="url(#clip0_421_113)">
<path fill-rule="evenodd" clip-rule="evenodd" d="M0.518555 -0.00012207H74.5186V73.9999H0.518555V-0.00012207ZM57.0885 62.0365C53.6567 62.0365 51.7173 60.2482 50.2281 57.8124L44.5763 61.0961C46.6175 65.1291 50.7892 68.2063 57.2488 68.2063C63.8533 68.2063 68.7712 64.7776 68.7712 58.5154C68.7712 52.7095 65.4351 50.1287 59.5274 47.5911L57.7884 46.848C54.8037 45.553 53.5118 44.7113 53.5118 42.6239C53.5118 40.9373 54.8068 39.6454 56.8418 39.6454C58.8367 39.6454 60.1225 40.4871 61.3157 42.6239L66.7301 39.149C64.4391 35.119 61.2633 33.5805 56.8418 33.5805C50.632 33.5805 46.6576 37.5518 46.6576 42.7688C46.6576 48.4267 49.9876 51.1061 55.0072 53.2429L56.7462 53.989C59.919 55.3765 61.8091 56.2214 61.8091 58.6048C61.8091 60.5966 59.9683 62.0365 57.0885 62.0365ZM30.1401 61.9903C27.7506 61.9903 26.7546 60.3561 25.6631 58.4136L20.0021 61.8423C21.6425 65.3141 24.8676 68.194 30.4331 68.194C36.5966 68.194 40.8177 64.9164 40.8177 57.7168V33.9751H33.8648V57.6243C33.8648 61.0992 32.4218 61.9903 30.1371 61.9903H30.1401Z" fill="#F8F8F8"/>
</g>
<defs>
<clipPath id="clip0_421_113">
<rect width="74" height="74" fill="white" transform="translate(0.518555 -0.00012207)"/>
</clipPath>
</defs>
</svg>
