<svg width="17" height="17" viewBox="0 0 17 17" fill="none" xmlns="http://www.w3.org/2000/svg">
<path d="M2.23032 4.03522C3.34462 4.03522 4.24793 3.13191 4.24793 2.01761C4.24793 0.903315 3.34462 0 2.23032 0C1.11602 0 0.212708 0.903315 0.212708 2.01761C0.212708 3.13191 1.11602 4.03522 2.23032 4.03522Z" fill="#F8F8F8"/>
<path d="M6.15302 5.56411V16.7578H9.62851V11.2223C9.62851 9.76163 9.9033 8.34709 11.7144 8.34709C13.5005 8.34709 13.5227 10.0171 13.5227 11.3145V16.7587H17V10.6201C17 7.60478 16.3508 5.28748 12.8264 5.28748C11.1343 5.28748 10.0001 6.21606 9.5363 7.09484H9.48927V5.56411H6.15302V5.56411ZM0.489319 5.56411H3.97035V16.7578H0.489319V5.56411Z" fill="#F8F8F8"/>
</svg>
