<svg width="74" height="75" viewBox="0 0 74 75" fill="none" xmlns="http://www.w3.org/2000/svg">
<g clip-path="url(#clip0_422_390)">
<path d="M13.7547 13.6466C16.0441 15.5128 16.9113 15.381 21.2334 15.0919L61.9796 12.6476C62.8468 12.6476 62.1253 11.7804 61.8339 11.6347L55.0652 6.74377C53.7772 5.73089 52.0428 4.58852 48.729 4.86371L9.28467 7.75433C7.83936 7.88614 7.5503 8.60995 8.12843 9.18808L13.7547 13.6466ZM16.199 23.151V66.0154C16.199 68.3164 17.3437 69.1836 19.9337 69.0379L64.7153 66.4479C67.3053 66.3022 67.6059 64.7251 67.6059 62.8473V20.2719C67.6059 18.3918 66.8821 17.3928 65.2934 17.5385L18.5023 20.2719C16.7679 20.4176 16.2014 21.2709 16.2014 23.1394L16.199 23.151ZM60.4025 25.438C60.6916 26.74 60.4025 28.028 59.1005 28.1853L56.9453 28.62V60.2596C55.0652 61.2725 53.3447 61.8506 51.911 61.8506C49.5985 61.8506 49.0204 61.1268 47.2976 58.9716L33.1821 36.8109V58.2501L37.6498 59.263C37.6498 59.263 37.6498 61.853 34.0492 61.853L24.1124 62.4311C23.8234 61.853 24.1124 60.4076 25.1253 60.1301L27.7153 59.4063V31.0666L24.1147 30.7776C23.8257 29.4756 24.5495 27.6095 26.559 27.4661L37.2174 26.7423L51.911 49.192V29.33L48.1647 28.8952C47.8757 27.3181 49.0204 26.1618 50.4657 26.0277L60.4025 25.438ZM5.97318 3.86702L47.0085 0.84458C52.0428 0.40983 53.3447 0.698893 56.5106 2.99983L69.6155 12.2128C71.7707 13.79 72.4946 14.2247 72.4946 15.9475V66.4502C72.4946 69.6183 71.3383 71.4845 67.3146 71.7736L19.6424 74.6526C16.6315 74.7983 15.1862 74.3636 13.5952 72.3517L3.94743 59.8249C2.22461 57.524 1.50311 55.8011 1.50311 53.7916V8.90364C1.50311 6.31364 2.65936 4.15839 5.97086 3.86933L5.97318 3.86702Z" fill="#F8F8F8"/>
</g>
<defs>
<clipPath id="clip0_422_390">
<rect width="74" height="74" fill="white" transform="translate(0 0.675781)"/>
</clipPath>
</defs>
</svg>
