<svg width="74" height="75" viewBox="0 0 74 75" fill="none" xmlns="http://www.w3.org/2000/svg">
<g clip-path="url(#clip0_423_402)">
<path d="M37 74.6758C16.5976 74.6758 0 58.0782 0 37.6758C0 17.2734 16.5976 0.675781 37 0.675781C57.4024 0.675781 74 17.2734 74 37.6758C74 58.0782 57.4024 74.6758 37 74.6758ZM37 4.0952C18.4846 4.0952 3.4225 19.1604 3.4225 37.6758C3.4225 56.1912 18.4846 71.2533 37 71.2533C55.5154 71.2533 70.5775 56.1912 70.5775 37.6758C70.5775 19.1604 55.5154 4.0952 37 4.0952ZM19.0612 19.1449C20.1465 13.9094 23.6954 9.18886 28.4653 6.82395C27.6359 7.6657 26.6307 8.3132 25.863 9.22895C22.718 12.6206 21.2997 17.5293 22.1661 22.0433C23.2607 28.9345 29.7357 34.5616 36.7564 34.4629C42.1985 34.7065 47.5018 31.5739 50.1627 26.8533C55.8607 27.0475 61.4015 29.989 64.6544 34.7096C66.3194 37.1732 67.6206 40.0623 67.71 43.0685C66.6555 39.0756 64.0038 35.5267 60.3871 33.5256C58.6336 32.5433 56.7014 31.9214 54.7042 31.6964C52.7069 31.4713 50.6849 31.6477 48.7567 32.2152C43.9467 33.5965 39.9723 37.5278 38.6033 42.3686C37.4409 46.2228 37.9373 50.4716 39.7658 53.9989C37.222 58.405 32.6278 61.55 27.6421 62.4966C23.8064 63.3014 19.7765 62.6785 16.206 61.0659C19.4003 61.9971 22.8691 62.1605 26.0449 61.032C28.173 60.3097 30.1138 59.1229 31.7265 57.5577C33.3391 55.9925 34.5834 54.088 35.3689 51.9824C37.0832 47.3883 36.4327 41.9277 33.5467 37.9841C31.3883 34.8792 27.9874 32.69 24.2905 31.913C23.1188 31.7034 21.9348 31.6109 20.7508 31.4999C18.8669 27.7043 18.1793 23.2982 19.1228 19.1789L19.0612 19.1449Z" fill="#F8F8F8"/>
</g>
<defs>
<clipPath id="clip0_423_402">
<rect width="74" height="74" fill="white" transform="translate(0 0.675781)"/>
</clipPath>
</defs>
</svg>
