<?xml version="1.0" encoding="utf-8"?>
<!-- Svg Vector Icons : http://www.onlinewebfonts.com/icon -->
<!DOCTYPE svg PUBLIC "-//W3C//DTD SVG 1.1//EN" "http://www.w3.org/Graphics/SVG/1.1/DTD/svg11.dtd">
<svg version="1.1" xmlns="http://www.w3.org/2000/svg" xmlns:xlink="http://www.w3.org/1999/xlink" x="0px" y="0px"
    viewBox="0 0 1000 1000" enable-background="new 0 0 1000 1000" xml:space="preserve">
    <metadata> Svg Vector Icons : http://www.onlinewebfonts.com/icon </metadata>
    <g>
        <g fill="white" transform="translate(0.000000,511.000000) scale(0.100000,-0.100000)">
            <path
                d="M2540.6,4972.7c-370.8-88.6-674-366.2-816.3-746.3c-51.3-137.6-53.6-144.6-60.6-1844.8l-7-1709.6h457.1h454.8v1644.3v1644.3l67.6,74.6l67.6,77l1203.5,7l1203.5,7V3006.6c0-1044.9,2.3-1126.5,46.6-1264.1c107.3-354.5,382.5-627.4,746.3-748.7c144.6-49,195.9-51.3,1266.4-60.6l1112.5-7v-2308.9c0-2535.2,7-2404.6-139.9-2481.6c-60.6-30.3-382.5-35-2754.4-30.3l-2684.5,7l-67.6,77c-56,60.7-67.6,95.6-67.6,191.3v116.6h-457.1H1652l16.3-184.3c44.3-529.4,375.5-935.2,870-1063.5c202.9-53.6,5550.8-51.3,5756.1,0c417.5,107.3,730,417.5,839.6,830.3c30.3,107.3,35,599.4,35,3122.9v2997L7762.6,3606L6358.6,5010l-1842.5-2.3C3028.1,5005.3,2647.9,5000.7,2540.6,4972.7z M7216.9,1842.8c-795.3-4.7-1058.9,2.3-1098.5,23.3c-119,63-121.3,77-121.3,1201.1v1044.9l1131.2-1131.2l1131.2-1131.2L7216.9,1842.8z" />
            <path
                d="M1379.1,91.2c-205.2-63-405.8-242.5-496.8-440.8c-49-107.3-51.3-135.3-51.3-1065.9v-956.2l65.3-133c81.6-165.6,256.6-326.5,426.8-389.5c125.9-49,163.3-49,2726.4-49c2563.2,0,2600.5,0,2726.5,49c170.3,63,345.2,223.9,426.8,389.5l65.3,133v956.2c0,930.6-2.3,958.6-51.3,1065.9c-67.6,146.9-223.9,312.5-368.5,387.2l-116.6,63l-2647.2,4.7C2629.2,107.5,1411.8,100.5,1379.1,91.2z M3060.7-846.4c172.6-58.3,254.2-191.3,254.2-410.5c0-286.9-116.6-384.8-478.1-403.5l-233.2-11.7l-7-237.9l-7-240.2h-125.9h-128.3v664.7v664.7h324.2C2839.1-820.7,3016.4-832.4,3060.7-846.4z M3809.4-1070.3l7-251.9l251.9-7l249.6-7v258.9v256.6h139.9h139.9v-664.7v-667l-132.9,7l-135.3,7l-7,298.5l-7,298.5l-249.6-7l-249.6-7l-7-296.2l-7-298.5h-125.9h-128.3v664.7v664.7h128.3h125.9L3809.4-1070.3z M5696.2-886c116.6-70,165.6-184.3,165.6-370.8c-2.4-165.6-44.3-261.2-151.6-342.9c-56-42-107.3-51.3-307.9-56l-242.6-9.3l-7-235.5l-7-237.9l-132.9-7l-135.3-7v667v669.4l368.5-9.3C5577.2-832.4,5619.2-837.1,5696.2-886z" />
            <path
                d="M2596.6-1245.2l7-193.6l170.3,2.3c209.9,0,268.2,44.3,268.2,198.2c0,147-58.3,184.3-279.9,184.3h-172.6L2596.6-1245.2z" />
            <path
                d="M5157.4-1252.2v-198.2h111.9c165.6,0,272.9,37.3,303.2,107.3c44.3,91,32.7,170.3-30.3,230.9c-49,51.3-77,58.3-221.6,58.3h-163.3V-1252.2z" />
        </g>
    </g>
</svg>