<svg width="74" height="74" viewBox="0 0 74 74" fill="none" xmlns="http://www.w3.org/2000/svg">
<g clip-path="url(#clip0_422_394)">
<path d="M31.2958 25.9615C30.1384 25.5078 28.8998 25.2978 27.6575 25.3448C26.5368 25.3214 25.4157 25.342 24.2967 25.4065V35.7665L25.4992 35.8281H27.1333C28.3358 35.8281 29.5383 35.6431 30.6792 35.2731C31.6658 34.9956 32.5292 34.4098 33.2075 33.639C33.855 32.8681 34.1633 31.8198 34.1633 30.4631C34.233 29.5042 33.9916 28.5484 33.475 27.7375C32.9585 26.9265 32.1943 26.3037 31.2958 25.9615ZM60.8958 0.924805H13.1042C9.62873 0.924805 6.29563 2.30542 3.83812 4.76293C1.38061 7.22043 0 10.5535 0 14.029L0 59.9706C0 67.2165 5.85833 73.0748 13.1042 73.0748H60.8958C68.1417 73.0748 74 67.2165 74 59.9706V14.029C74 6.78314 68.1417 0.924805 60.8958 0.924805ZM39.035 36.8456C37.8017 38.5723 36.075 39.8673 34.0708 40.6073C31.9742 41.3781 29.6617 41.6556 27.1333 41.6556L25.5917 41.6248L24.2658 41.594V51.4915C24.2746 51.5425 24.2725 51.5947 24.2598 51.6449C24.2471 51.695 24.2241 51.7419 24.1921 51.7826C24.1601 51.8233 24.12 51.8568 24.0743 51.881C24.0286 51.9052 23.9783 51.9196 23.9267 51.9231H17.945C17.6983 51.9231 17.575 51.7998 17.575 51.5223V19.7948C17.575 19.579 17.6675 19.4556 17.8833 19.4556L19.61 19.4248L21.9533 19.3631L24.6358 19.3015L27.4417 19.2706C29.97 19.2706 32.0667 19.579 33.7933 20.2265C35.335 20.7506 36.7533 21.614 37.925 22.7548C38.9117 23.7415 39.6825 24.944 40.1758 26.2698C40.6383 27.5648 40.885 28.8906 40.885 30.2781C40.885 32.9298 40.2683 35.119 39.035 36.8456ZM60.0633 27.1331V33.1456C60.0633 33.3923 59.9092 33.4848 59.57 33.4848C57.5357 33.4109 55.5112 33.801 53.65 34.6256C53.0642 34.9031 52.5092 35.2731 52.0775 35.7665V51.4915C52.0775 51.7998 51.9542 51.9231 51.6767 51.9231H45.6025C45.5457 51.9318 45.4878 51.9291 45.4321 51.9152C45.3764 51.9012 45.324 51.8762 45.2781 51.8418C45.2322 51.8073 45.1935 51.7641 45.1645 51.7145C45.1355 51.6649 45.1167 51.6101 45.1092 51.5531V34.3481L45.0783 32.0356L45.0167 29.6306C45.0167 28.9215 44.955 28.2431 44.8933 27.534C44.8828 27.461 44.8988 27.3866 44.9384 27.3244C44.978 27.2621 45.0386 27.2162 45.1092 27.1948H50.5975C50.9058 27.1948 51.1525 27.4106 51.2142 27.6881C51.4928 28.6075 51.628 29.5643 51.615 30.5248C52.54 29.4456 53.6808 28.5515 54.945 27.8731C56.3782 27.077 57.9922 26.6629 59.6317 26.6706C59.8475 26.6398 60.0325 26.794 60.0633 27.0098V27.1331Z" fill="#F8F8F8"/>
</g>
<defs>
<clipPath id="clip0_422_394">
<rect width="74" height="74" fill="white"/>
</clipPath>
</defs>
</svg>
