<svg width="75" height="74" viewBox="0 0 75 74" fill="none" xmlns="http://www.w3.org/2000/svg">
<path d="M37.5811 0.00012207C57.9311 0.00012207 74.5811 16.6501 74.5811 37.0001C74.5811 57.3501 57.9311 74.0001 37.5811 74.0001C17.2311 74.0001 0.581055 57.3501 0.581055 37.0001C0.581055 16.6501 17.2311 0.00012207 37.5811 0.00012207ZM30.1811 49.2564C30.6436 51.3376 30.6436 53.1876 30.1811 54.8064L29.9498 55.5001C29.9498 55.7314 29.7186 55.9626 29.7186 55.9626C29.2561 56.8876 28.7936 57.5814 28.0998 58.5064C26.0186 60.8189 23.0123 61.7439 21.6248 61.0501C20.2373 60.3564 20.9311 56.8876 23.4748 54.3439C26.2498 51.5689 29.9498 49.7189 29.9498 49.7189L30.1811 49.2564V49.2564ZM60.7061 15.7251C59.0873 9.25012 48.2186 6.93762 37.8123 10.6376C31.7998 12.9501 25.0936 16.4189 20.2373 20.8126C14.4561 26.1314 13.7623 30.7564 13.9936 32.6064C15.3811 39.3126 24.6311 43.9376 28.5623 47.1751C27.4061 47.6376 19.0811 51.8001 17.2311 56.1939C15.1498 60.8189 17.4623 64.0564 19.0811 64.2876C23.9373 65.6751 29.0248 63.1314 31.5686 59.2001C34.1123 55.2689 33.8811 50.4126 32.7248 47.8689C34.5237 47.3133 36.4359 47.2337 38.2748 47.6376C44.7498 48.3314 46.1373 52.4939 45.6748 54.1126C45.2123 55.7314 44.0561 56.6564 43.5936 57.1189C43.1311 57.3501 42.8998 57.5814 43.1311 57.5814C43.1311 57.8126 43.3623 57.8126 43.8248 57.8126C44.2873 57.8126 47.2936 56.4251 47.2936 53.1876C47.5248 49.2564 43.5936 44.8626 36.8873 44.8626C34.1123 44.8626 32.2623 45.0939 31.1061 45.5564C31.1061 45.3251 30.8748 45.3251 30.8748 45.3251C26.7123 40.9314 19.0811 37.6939 19.3123 31.6814C19.3123 29.6001 20.2373 23.8189 34.1123 16.8814C45.4436 11.1001 54.6936 12.7189 56.3123 16.1876C58.6248 21.0439 51.4561 30.2939 39.6623 31.6814C35.0373 32.1439 32.7248 30.5251 32.2623 29.8314C31.5686 29.1376 31.5686 29.1376 31.3373 29.1376C30.8748 29.3689 31.1061 29.8314 31.3373 30.2939C31.7998 31.2189 33.1873 32.8376 35.7311 33.7626C37.8123 34.4564 43.1311 34.9189 49.6061 32.3751C56.7748 29.6001 62.3248 21.9689 60.7061 15.4939V15.7251Z" fill="#F8F8F8"/>
</svg>
