<svg width="35" height="35" viewBox="0 0 35 35" fill="none" xmlns="http://www.w3.org/2000/svg">
<path d="M13.125 0.608106C13.3385 0.867571 13.4693 1.18511 13.5005 1.51969C13.5317 1.85427 13.4619 2.19051 13.3 2.48498C12.0353 4.80696 11.3749 7.40969 11.3794 10.0537C11.3794 18.8497 18.55 25.9722 27.3875 25.9722C28.5403 25.9722 29.6625 25.8519 30.7409 25.6222C31.0715 25.5506 31.4159 25.578 31.731 25.7009C32.0461 25.8238 32.318 26.0369 32.5128 26.3134C32.7184 26.601 32.8232 26.9484 32.811 27.3017C32.7987 27.6549 32.67 27.9943 32.445 28.2669C30.7293 30.3744 28.5649 32.0724 26.1096 33.2373C23.6544 34.4021 20.9701 35.0043 18.2525 35C8.16812 35 0 26.8756 0 16.8656C0 9.33186 4.62438 2.86998 11.2087 0.131232C11.5367 -0.00738624 11.9009 -0.0358369 12.2464 0.0501533C12.5919 0.136144 12.9002 0.331932 13.125 0.608106ZM10.6269 2.86779C8.09507 4.22586 5.97852 6.24451 4.50216 8.70921C3.02581 11.1739 2.24481 13.9926 2.24219 16.8656C2.24219 25.6594 9.415 32.7819 18.2525 32.7819C20.3688 32.7855 22.4648 32.3694 24.4192 31.5576C26.3736 30.7458 28.1476 29.5545 29.6384 28.0525C28.9012 28.1444 28.1509 28.1903 27.3875 28.1903C17.3031 28.1903 9.13719 20.0659 9.13719 10.0559C9.13719 7.50311 9.66656 5.07279 10.6269 2.86779Z" fill="white"/>
<path d="M23.6119 6.88627C23.6433 6.79154 23.7037 6.7091 23.7846 6.65068C23.8655 6.59225 23.9627 6.5608 24.0625 6.5608C24.1623 6.5608 24.2596 6.59225 24.3404 6.65068C24.4213 6.7091 24.4818 6.79154 24.5131 6.88627L25.3597 9.42815C25.7381 10.5613 26.6263 11.4494 27.7594 11.8278L30.3013 12.6744C30.396 12.7058 30.4784 12.7662 30.5369 12.8471C30.5953 12.928 30.6267 13.0252 30.6267 13.125C30.6267 13.2248 30.5953 13.3221 30.5369 13.403C30.4784 13.4839 30.396 13.5443 30.3013 13.5756L27.7594 14.4222C27.2005 14.6084 26.6927 14.9222 26.2762 15.3387C25.8597 15.7552 25.5459 16.263 25.3597 16.8219L24.5131 19.3638C24.4818 19.4585 24.4213 19.5409 24.3404 19.5994C24.2596 19.6578 24.1623 19.6892 24.0625 19.6892C23.9627 19.6892 23.8655 19.6578 23.7846 19.5994C23.7037 19.5409 23.6433 19.4585 23.6119 19.3638L22.7653 16.8219C22.5791 16.263 22.2653 15.7552 21.8488 15.3387C21.4323 14.9222 20.9245 14.6084 20.3656 14.4222L17.8238 13.5756C17.729 13.5443 17.6466 13.4839 17.5882 13.403C17.5297 13.3221 17.4983 13.2248 17.4983 13.125C17.4983 13.0252 17.5297 12.928 17.5882 12.8471C17.6466 12.7662 17.729 12.7058 17.8238 12.6744L20.3656 11.8278C20.9245 11.6416 21.4323 11.3278 21.8488 10.9113C22.2653 10.4948 22.5791 9.987 22.7653 9.42815L23.6119 6.88627ZM30.3253 0.216583C30.3469 0.154297 30.3874 0.100286 30.4411 0.0620614C30.4948 0.0238363 30.5591 0.0032959 30.625 0.0032959C30.6909 0.0032959 30.7552 0.0238363 30.8089 0.0620614C30.8626 0.100286 30.9031 0.154297 30.9247 0.216583L31.4891 1.90971C31.7406 2.66658 32.3334 3.2594 33.0903 3.51096L34.7834 4.07533C34.8457 4.09693 34.8997 4.13739 34.938 4.1911C34.9762 4.24481 34.9967 4.3091 34.9967 4.37502C34.9967 4.44094 34.9762 4.50523 34.938 4.55894C34.8997 4.61265 34.8457 4.65311 34.7834 4.67471L33.0903 5.23908C32.7173 5.36316 32.3784 5.57249 32.1004 5.85045C31.8225 6.12841 31.6132 6.46734 31.4891 6.84033L30.9247 8.53346C30.9031 8.59574 30.8626 8.64975 30.8089 8.68798C30.7552 8.7262 30.6909 8.74675 30.625 8.74675C30.5591 8.74675 30.4948 8.7262 30.4411 8.68798C30.3874 8.64975 30.3469 8.59574 30.3253 8.53346L29.7609 6.84033C29.6369 6.46734 29.4275 6.12841 29.1496 5.85045C28.8716 5.57249 28.5327 5.36316 28.1597 5.23908L26.4666 4.67471C26.4043 4.65311 26.3503 4.61265 26.3121 4.55894C26.2738 4.50523 26.2533 4.44094 26.2533 4.37502C26.2533 4.3091 26.2738 4.24481 26.3121 4.1911C26.3503 4.13739 26.4043 4.09693 26.4666 4.07533L28.1597 3.51096C28.9166 3.2594 29.5094 2.66658 29.7609 1.90971L30.3253 0.21877V0.216583Z" fill="white"/>
</svg>
