<svg width="74" height="61" viewBox="0 0 74 61" fill="none" xmlns="http://www.w3.org/2000/svg">
<path d="M72.7004 34.7703C72.4534 34.5601 72.1602 34.4111 71.8447 34.3356C69.9901 36.2272 67.6776 38.1905 65.6773 39.5271C64.713 40.1422 63.5221 40.4429 62.7497 40.4429C60.9321 40.4429 60.1597 38.7571 59.9423 36.0098C59.5428 31.0538 59.3661 26.0823 59.4128 21.1104C59.4128 14.1497 57.8102 9.39062 53.6199 9.02987L53.0649 8.99287C50.5004 8.99287 49.2354 10.3179 47.6097 13.678C46.1876 16.5802 43.9953 20.7727 39.9623 28.7925C36.9134 34.8524 33.2999 40.6113 29.1699 45.9929C28.2056 47.1607 27.4725 47.9677 26.7602 48.4626C26.3625 48.7401 25.8931 48.8835 25.3982 48.8974C24.0731 48.8974 23.0857 47.7897 22.7851 45.1627C22.6978 44.4554 22.6576 43.7431 22.6648 43.0306C22.6648 37.6355 24.6998 28.8549 28.2056 15.9674C30.7701 6.56012 29.6879 0.140625 24.0754 0.140625H23.9922C22.7272 0.140625 21.6797 0.6355 20.6552 1.44256C19.6424 2.21262 18.6549 3.93544 17.6929 6.24794C16.6454 8.83794 10.2374 21.7602 -8.61473e-07 28.4456C-0.120251 30.9501 1.30194 33.4799 4.22725 33.7806C6.84037 34.0326 8.72044 32.9249 11.1277 31.2877L10.6329 33.5401C10.0107 36.1883 9.49613 38.8606 9.09044 41.5506C7.66825 54.5098 13.6322 60.8946 20.6298 60.8946C21.7976 60.8946 22.9654 60.7374 24.1101 60.4252C31.8177 58.485 39.2131 49.6096 48.0052 29.1949C47.8853 31.2687 47.873 33.3473 47.9682 35.4224C48.5579 47.1422 53.1482 50.6225 59.6879 50.6225C64.6251 50.6225 69.2154 48.0695 71.5626 44.8528C73.0816 42.9265 73.9352 40.5597 73.9954 38.1072C73.9352 36.5902 73.4658 35.3854 72.6934 34.7703H72.7004Z" fill="#F8F8F8"/>
</svg>
