<svg width="64" height="64" viewBox="0 0 64 64" fill="none" xmlns="http://www.w3.org/2000/svg">
<path d="M60.9821 7.31462L47.9575 0.991973C47.475 0.795535 46.9608 0.688418 46.4401 0.675841H46.1872C45.3656 0.671195 44.5655 0.937902 43.911 1.43456L43.4684 1.81392L18.5572 24.5438L7.71385 16.4825C7.22538 16.1088 6.62118 15.9186 6.00674 15.945C5.4048 15.9382 4.81688 16.1268 4.33124 16.4825L0.853783 19.6438C0.58113 19.8849 0.363724 20.182 0.216415 20.5148C0.0691054 20.8476 -0.00463641 21.2083 0.000225713 21.5722C-0.00108258 21.9402 0.0741179 22.3045 0.221055 22.6419C0.367993 22.9793 0.583459 23.2825 0.853783 23.5322L10.3378 32.0994L0.853783 40.6982C0.58666 40.9467 0.373615 41.2476 0.227938 41.5821C0.0822601 41.9166 0.00707626 42.2775 0.00707626 42.6424C0.00707626 43.0073 0.0822601 43.3682 0.227938 43.7027C0.373615 44.0372 0.58666 44.3381 0.853783 44.5866L4.33124 47.7479C4.8556 48.2066 5.53147 48.4544 6.22803 48.4434C6.76307 48.4032 7.2769 48.2174 7.71385 47.906L18.5572 39.655L43.4684 62.3849C44.1058 63.0416 44.9591 63.4458 45.871 63.5229H46.4084C46.9487 63.5309 47.482 63.4003 47.9575 63.1436L60.9821 56.8209C61.6412 56.5055 62.1999 56.0135 62.5961 55.3996C62.9923 54.7857 63.2106 54.074 63.2267 53.3435V10.8869C63.2245 10.141 63.013 9.41076 62.6162 8.7792C62.2194 8.14765 61.6532 7.64019 60.9821 7.31462ZM47.4201 46.4202L28.4521 32.0994L47.4201 17.7786V46.4202Z" fill="#F8F8F8"/>
</svg>
