<svg width="49" height="49" viewBox="0 0 49 49" fill="none" xmlns="http://www.w3.org/2000/svg">
<path d="M34.1421 28.7062C33.6205 28.4382 31.0221 27.1653 30.5388 26.9931C30.0555 26.8112 29.7014 26.7251 29.3521 27.261C28.998 27.7922 27.9931 28.9741 27.6773 29.333C27.3711 29.6871 27.06 29.7302 26.5385 29.467C23.4377 27.9166 21.404 26.7012 19.3607 23.1937C18.82 22.2605 19.9014 22.3275 20.9111 20.313C21.0834 19.9589 20.9972 19.6574 20.8633 19.3895C20.7293 19.1215 19.6765 16.5279 19.2363 15.4704C18.8104 14.4416 18.3702 14.5852 18.0496 14.566C17.7433 14.5469 17.394 14.5469 17.0399 14.5469C16.6858 14.5469 16.1164 14.6809 15.6331 15.2024C15.1498 15.7336 13.786 17.0112 13.786 19.6048C13.786 22.1983 15.6761 24.7105 15.9345 25.0646C16.2025 25.4187 19.6526 30.7398 24.9498 33.0319C28.2994 34.4771 29.6105 34.6015 31.2853 34.3526C32.3046 34.1995 34.4053 33.0798 34.8407 31.8404C35.2762 30.6059 35.2762 29.5483 35.147 29.3282C35.0178 29.0938 34.6637 28.9598 34.1421 28.7062Z" fill="white"/>
<path d="M44.2723 16.193C43.1909 13.6233 41.6405 11.3169 39.6642 9.33584C37.6879 7.35957 35.3815 5.80439 32.8071 4.72773C30.1752 3.62236 27.3807 3.0625 24.5 3.0625H24.4043C21.5045 3.07686 18.6956 3.65107 16.0542 4.78037C13.5037 5.87139 11.2164 7.42178 9.25931 9.39805C7.30218 11.3743 5.76614 13.6712 4.70384 16.2313C3.60325 18.8822 3.04817 21.7007 3.06253 24.6005C3.07688 27.9214 3.87122 31.2184 5.3594 34.166V41.4395C5.3594 42.6549 6.34514 43.6406 7.56057 43.6406H14.8388C17.7865 45.1288 21.0834 45.9231 24.4043 45.9375H24.5048C27.3711 45.9375 30.1513 45.3824 32.7688 44.2962C35.3288 43.2291 37.6305 41.6979 39.602 39.7407C41.5783 37.7836 43.1334 35.4963 44.2197 32.9458C45.349 30.3044 45.9232 27.4955 45.9375 24.5957C45.9519 21.6815 45.3872 18.8535 44.2723 16.193ZM37.0419 37.152C33.6875 40.4729 29.2373 42.3008 24.5 42.3008H24.4187C21.5332 42.2864 18.6669 41.5687 16.1356 40.2192L15.7336 40.0039H8.99612V33.2664L8.78079 32.8645C7.43138 30.3331 6.7136 27.4668 6.69925 24.5813C6.68011 19.8105 8.50325 15.3316 11.8481 11.9581C15.1881 8.58457 19.6527 6.71836 24.4235 6.69922H24.5048C26.8974 6.69922 29.2182 7.16338 31.405 8.08213C33.5392 8.97695 35.4533 10.2642 37.0993 11.9103C38.7407 13.5516 40.0326 15.4704 40.9275 17.6046C41.8558 19.8153 42.32 22.1601 42.3104 24.5813C42.2817 29.3474 40.4107 33.8119 37.0419 37.152Z" fill="white"/>
</svg>
