<svg width="75" height="74" viewBox="0 0 75 74" fill="none" xmlns="http://www.w3.org/2000/svg">
<g clip-path="url(#clip0_421_121)">
<path d="M74.5186 36.9999C74.5186 16.5759 57.9426 -0.00012207 37.5186 -0.00012207C17.0946 -0.00012207 0.518555 16.5759 0.518555 36.9999C0.518555 57.4239 17.0946 73.9999 37.5186 73.9999C57.9426 73.9999 74.5186 57.4239 74.5186 36.9999ZM37.5186 3.73688C55.9076 3.73688 70.7816 18.6109 70.7816 36.9999C70.7816 55.3889 55.9076 70.2629 37.5186 70.2629C19.1296 70.2629 4.25555 55.3889 4.25555 36.9999C4.25555 18.6109 19.1296 3.73688 37.5186 3.73688ZM30.1556 54.8339L18.8706 24.4569C20.6836 24.3459 22.7556 24.1609 22.7556 24.1609C24.3466 23.9759 24.1616 20.4239 22.5336 20.4979C22.5336 20.4979 17.7606 20.8679 14.6526 20.8679C14.0976 20.8679 13.4316 20.8679 12.7286 20.8309C18.0566 12.8019 27.1586 7.51088 37.5186 7.51088C45.2516 7.51088 52.2816 10.4339 57.5356 15.2439C55.3156 14.9479 52.1706 16.5389 52.1706 20.4979C52.1706 22.9399 53.5766 25.0119 55.0936 27.4539C56.2406 29.4519 56.9436 31.9679 56.9436 35.6309C56.9436 40.5889 52.2446 52.2069 52.2446 52.2069L42.2176 24.4569C43.9936 24.3459 44.9926 23.8649 44.9926 23.8649C46.5836 23.6799 46.3986 19.7949 44.8076 19.8689C44.8076 19.8689 39.9976 20.2759 36.8896 20.2759C34.0036 20.2759 29.0826 19.8689 29.0826 19.8689C27.4916 19.7949 27.3066 23.7909 28.8976 23.8649L32.0056 24.1609L36.1496 35.4089L30.1556 54.8339ZM52.4296 62.7889L62.0866 36.9999C62.0866 36.9999 64.5656 30.7469 63.5296 22.9029C65.8606 27.1209 67.0076 31.8569 67.0076 36.9999C67.0076 47.9519 61.2356 57.6459 52.4296 62.7889ZM10.4346 25.0489L24.5686 63.8249C14.6896 59.0149 8.02955 48.7289 8.02955 36.9999C8.02955 32.7079 8.76956 28.7489 10.4346 25.0489ZM37.9996 41.8099L46.4726 64.9349C43.6976 65.9339 40.6636 66.4889 37.5186 66.4889C34.8546 66.4889 32.3016 66.0819 29.8966 65.3789L37.9996 41.8099Z" fill="#F8F8F8"/>
</g>
<defs>
<clipPath id="clip0_421_121">
<rect width="74" height="74" fill="white" transform="translate(0.518555 -0.00012207)"/>
</clipPath>
</defs>
</svg>
