<svg width="132" height="121" viewBox="0 0 132 121" fill="none" xmlns="http://www.w3.org/2000/svg">
<path d="M100.646 60.34L117.826 90.1L117.636 30.03L100.646 60.34Z" fill="url(#paint0_linear_232_87)"/>
<path d="M13.9362 29.95L13.7862 90.1L31.4162 60.34L13.9362 29.95Z" fill="url(#paint1_linear_232_87)"/>
<path d="M65.8062 120.14L117.826 90.1L100.646 59.57L65.8062 120.14Z" fill="url(#paint2_linear_232_87)"/>
<path d="M31.4162 60.34L65.8062 120.14L13.7862 90.1L31.4162 60.34Z" fill="url(#paint3_linear_232_87)"/>
<g opacity="0.49">
<path opacity="0.49" d="M65.8062 120.56L117.636 30.46L65.8062 0.419998L13.9362 30.37L65.8062 120.56Z" fill="#201813"/>
</g>
<path d="M65.8062 120.14L117.636 30.03L65.8062 0L13.9362 29.95L65.8062 120.14Z" fill="#403F41"/>
<g opacity="0.49">
<path opacity="0.49" d="M90.6962 76.42C93.6062 74 96.8162 68.68 99.4362 65.24C103.856 59.44 107.246 52.4 110.436 45.46C113.856 38.02 122.646 23.05 131.436 17.46" fill="#201813"/>
<path opacity="0.49" d="M91.6362 74.41C92.2632 73.4093 92.9939 72.4775 93.8162 71.63C93.1651 72.6626 92.4039 73.6215 91.5462 74.49C92.0062 74.1 92.4462 73.68 92.8862 73.25C91.4562 75.34 90.6862 76.07 90.6462 76.31C90.6062 76.55 91.2362 76.19 92.1162 75.56C92.3862 75.37 93.0362 74.76 92.8962 74.95C92.0962 76.07 93.2962 74.95 93.2262 75.24C94.3562 74 95.1462 72.87 95.9562 71.8L98.3462 69.12C99.2393 68.1823 100.062 67.1795 100.806 66.12C101.376 65.39 102.106 64.33 102.096 64.56C102.596 63.78 103.096 62.99 103.546 62.2L103.786 61.96C103.266 62.8 102.716 63.65 102.146 64.48C102.146 64.8 103.566 62.73 103.276 63.42C104.966 60.86 106.276 58.5 107.476 56.52C108.886 53.52 110.366 50.88 111.706 48.03C112.081 47.225 112.498 46.4406 112.956 45.68C113.666 44.4827 114.311 43.2475 114.886 41.98C115.406 40.91 116.076 39.6 116.746 38.47C117.896 36.52 119.326 34.47 119.836 33.28C120.02 32.9554 120.227 32.6446 120.456 32.35C121.039 31.6227 121.542 30.8348 121.956 30C122.547 28.9514 123.215 27.9486 123.956 27C125.426 25 127.346 22.84 127.796 22.08C127.226 22.49 125.796 24.16 126.066 23.66C127.47 21.9638 129.03 20.4036 130.726 19C132.286 17.77 132.206 17.78 130.246 19C129.736 19.45 129.246 19.92 128.556 20.59C128.092 20.7471 127.659 20.984 127.276 21.29C126.076 22.23 125.876 22.29 126.076 21.87C126.276 21.45 124.716 22.39 123.856 23.2C123.038 24.0528 122.176 24.8638 121.276 25.63C120.856 25.74 119.396 27.48 118.206 28.97C117.016 30.46 115.346 32.85 114.476 33.85C114.056 34.4024 113.666 34.9766 113.306 35.57C111.836 37.93 110.456 40.37 109.176 42.86L106.026 49.29C105.424 50.2762 104.925 51.3217 104.536 52.41C104.426 52.62 104.276 52.91 104.196 53.02C103.702 53.8204 103.255 54.6484 102.856 55.5C102.396 56.44 101.856 57.5 101.246 58.5C100.336 59.99 99.7962 60.89 99.3962 61.69C98.9962 62.49 98.5662 63.25 98.0062 64.23C97.1462 65.37 96.3462 66.51 95.5662 67.63L96.5662 66.63C95.6284 67.8299 94.7795 69.0966 94.0262 70.42C93.5762 71.18 93.3062 71.73 92.8562 72.42C92.1964 73.4743 91.4031 74.439 90.4962 75.29C90.8908 75.0162 91.2713 74.7225 91.6362 74.41ZM92.5662 74.12C93.4062 72.99 93.8762 72.24 94.4262 71.4C94.4262 71.56 95.1062 70.94 93.8662 72.67C93.4662 73.17 93.0262 73.67 92.5762 74.12H92.5662ZM100.516 65.48C99.4562 66.85 98.5162 68.23 97.5162 69.64V69.54C98.5162 68.12 99.5162 66.74 100.516 65.38V65.48ZM110.416 50.29L111.416 48.01C111.215 48.8212 110.876 49.5922 110.416 50.29Z" fill="#201813"/>
</g>
<path d="M90.6962 76C93.6062 73.58 96.8162 68.26 99.4362 64.82C103.856 59 107.246 52 110.436 45C113.856 37.56 122.646 22.59 131.436 17" fill="#201B1D"/>
<path d="M91.6362 75C92.2632 73.9993 92.9939 73.0675 93.8162 72.22C93.1651 73.2526 92.4039 74.2115 91.5462 75.08C92.0062 74.69 92.4462 74.27 92.8862 73.84C91.4562 75.93 90.6862 76.66 90.6462 76.9C90.6062 77.14 91.2362 76.78 92.1162 76.15C92.3862 75.96 93.0362 75.35 92.8962 75.54C92.0962 76.66 93.2962 75.54 93.2262 75.83C94.3562 74.54 95.1462 73.46 95.9262 72.39L98.3162 69.71C99.2093 68.7723 100.032 67.7695 100.776 66.71C101.346 65.98 102.076 64.92 102.066 65.15C102.566 64.37 103.066 63.58 103.516 62.79L103.756 62.55C103.236 63.39 102.686 64.24 102.116 65.07C102.116 65.39 103.536 63.32 103.246 64.01C104.936 61.45 106.246 59.09 107.446 57.11C108.856 54.11 110.336 51.47 111.676 48.62C112.06 47.811 112.488 47.0232 112.956 46.26C113.666 45.0627 114.311 43.8275 114.886 42.56C115.406 41.49 116.076 40.18 116.746 39.05C117.896 37.1 119.326 35.05 119.836 33.86C120.02 33.5354 120.227 33.2246 120.456 32.93C121.063 32.1899 121.586 31.385 122.016 30.53C122.607 29.4814 123.275 28.4786 124.016 27.53C125.486 25.53 127.406 23.37 127.856 22.61C127.286 23.02 125.856 24.69 126.126 24.19C127.524 22.5017 129.078 20.9482 130.766 19.55C132.326 18.32 132.246 18.33 130.286 19.55C129.776 20 129.286 20.47 128.596 21.14C128.132 21.2971 127.699 21.534 127.316 21.84C126.116 22.78 125.916 22.84 126.116 22.42C126.316 22 124.756 22.94 123.896 23.75C123.078 24.6028 122.216 25.4138 121.316 26.18C120.896 26.29 119.436 28.03 118.246 29.52C117.056 31.01 115.386 33.4 114.516 34.4C114.096 34.9524 113.706 35.5266 113.346 36.12C111.876 38.48 110.496 40.92 109.216 43.41L106.066 49.8C105.464 50.7862 104.965 51.8317 104.576 52.92C104.466 53.13 104.316 53.42 104.236 53.53C103.729 54.3262 103.268 55.1509 102.856 56C102.396 56.94 101.856 58 101.246 59C100.336 60.49 99.7962 61.39 99.3962 62.19C98.9962 62.99 98.5662 63.75 98.0062 64.73C97.1462 65.87 96.3462 67.01 95.5662 68.13L96.5662 67.13C95.6284 68.3299 94.7795 69.5966 94.0262 70.92C93.5762 71.68 93.3062 72.23 92.8562 72.92C92.1968 73.9837 91.4037 74.9583 90.4962 75.82C90.8895 75.5657 91.27 75.292 91.6362 75ZM92.5662 74.71C93.4062 73.58 93.8762 72.83 94.4262 71.99C94.4262 72.15 95.1062 71.53 93.8662 73.26C93.4662 73.76 93.0262 74.26 92.5762 74.71H92.5662ZM100.496 66.11C99.4362 67.48 98.4962 68.86 97.4962 70.27V70.17C98.4962 68.75 99.4962 67.37 100.496 66.01V66.11ZM110.416 50.9L111.416 48.62C111.215 49.4312 110.876 50.2022 110.416 50.9Z" fill="#0A080B"/>
<g opacity="0.49">
<path opacity="0.49" d="M0.336159 17.73C9.12616 23.32 17.9162 38.29 21.3362 45.73C24.5262 52.67 27.9162 59.73 32.3362 65.51C34.9562 69 38.1662 74.27 41.0762 76.69" fill="#201813"/>
<path opacity="0.49" d="M40.1362 74.65C40.501 74.9625 40.8815 75.2562 41.2762 75.53C40.3833 74.6765 39.6036 73.712 38.9562 72.66C38.5062 71.97 38.2362 71.42 37.7862 70.66C37.0269 69.3402 36.1782 68.0739 35.2462 66.87L36.2462 67.87C35.4662 66.75 34.6662 65.61 33.8062 64.47C33.2462 63.47 32.8062 62.73 32.4162 61.93C32.0262 61.13 31.4762 60.23 30.5662 58.74C29.9562 57.74 29.4162 56.68 28.9562 55.74C28.5551 54.8895 28.1078 54.0616 27.6162 53.26C27.5362 53.15 27.3862 52.86 27.2762 52.65C26.8857 51.5625 26.3865 50.5172 25.7862 49.53L22.5962 43.1C21.3162 40.61 19.9362 38.17 18.4662 35.81C18.1065 35.2166 17.716 34.6424 17.2962 34.09C16.4262 33.09 14.7562 30.7 13.5662 29.21C12.3762 27.72 10.9562 26 10.4962 25.87C9.60954 25.1028 8.76181 24.2918 7.95616 23.44C7.09616 22.63 5.53616 21.69 5.73616 22.11C5.93616 22.53 5.73616 22.47 4.53616 21.53C4.15215 21.2259 3.71934 20.9893 3.25616 20.83C2.56616 20.16 2.07616 19.69 1.56616 19.24C-0.433844 18.02 -0.433844 18.01 1.08616 19.24C2.77444 20.6382 4.3279 22.1917 5.72616 23.88C5.95616 24.38 4.52616 22.71 3.95616 22.3C4.40616 23.06 6.32616 25.22 7.79616 27.22C8.53689 28.1686 9.20543 29.1714 9.79616 30.22C10.2262 31.075 10.7494 31.8799 11.3562 32.62C11.585 32.9146 11.7922 33.2254 11.9762 33.55C12.4862 34.74 13.9162 36.79 15.0662 38.74C15.7362 39.87 16.4062 41.18 16.9262 42.25C17.4979 43.5356 18.1423 44.7876 18.8562 46C19.3062 46.76 19.7162 47.55 20.0962 48.35C21.4362 51.2 22.9162 53.84 24.3262 56.84C25.5262 58.84 26.8362 61.18 28.5262 63.74C28.2362 63.05 29.6562 65.12 29.6562 64.8C29.0862 63.97 28.5362 63.12 28.0162 62.28L28.2562 62.52C28.7062 63.31 29.2062 64.1 29.7062 64.88C29.7062 64.65 30.4262 65.71 30.9962 66.44C31.7408 67.4995 32.563 68.5023 33.4562 69.44L35.8462 72.12C36.6262 73.19 37.4162 74.27 38.5462 75.56C38.4762 75.27 39.6762 76.39 38.8762 75.27C38.7362 75.08 39.3862 75.69 39.6562 75.88C40.5362 76.51 41.1662 76.88 41.1262 76.63C41.0862 76.38 40.3162 75.63 38.8862 73.57C39.3262 74 39.7662 74.42 40.2262 74.81C39.3655 73.9258 38.6043 72.95 37.9562 71.9C38.7762 72.7495 39.5067 73.6811 40.1362 74.68V74.65ZM39.1962 74.36C38.7569 73.8995 38.343 73.4154 37.9562 72.91C36.7162 71.18 37.3962 71.8 37.3962 71.64C37.9462 72.48 38.3962 73.23 39.2562 74.36H39.1962ZM31.2562 65.72V65.62C32.2562 66.98 33.2562 68.36 34.2562 69.78V69.88C33.2562 68.47 32.3162 67.09 31.2562 65.72ZM21.3562 50.53C20.8959 49.8322 20.5578 49.0612 20.3562 48.25L21.3562 50.53Z" fill="#201813"/>
</g>
<path d="M0.336159 17.3C9.12616 22.89 17.9162 37.86 21.3362 45.3C24.5262 52.24 27.9162 59.3 32.3362 65.08C34.9562 68.52 38.1662 73.84 41.0762 76.26" fill="#201B1D"/>
<path d="M40.1362 74.22C40.501 74.5325 40.8815 74.8262 41.2762 75.1C40.3827 74.2359 39.6031 73.2614 38.9562 72.2C38.5062 71.51 38.2362 70.96 37.7862 70.2C37.0269 68.8802 36.1782 67.6139 35.2462 66.41L36.2462 67.41C35.4662 66.29 34.6662 65.15 33.8062 64.01C33.2462 63.01 32.8062 62.27 32.4162 61.47C32.0262 60.67 31.4762 59.77 30.5662 58.28C29.9562 57.28 29.4162 56.22 28.9562 55.28C28.5551 54.4295 28.1078 53.6016 27.6162 52.8C27.5362 52.69 27.3862 52.4 27.2762 52.19C26.8857 51.1025 26.3865 50.0572 25.7862 49.07L22.6362 42.68C21.3562 40.19 19.9762 37.75 18.5062 35.39C18.1465 34.7966 17.756 34.2224 17.3362 33.67C16.4662 32.67 14.7962 30.28 13.6062 28.79C12.4162 27.3 10.9562 25.56 10.4962 25.45C9.60905 24.6763 8.76131 23.8586 7.95616 23C7.09616 22.19 5.53616 21.25 5.73616 21.67C5.93616 22.09 5.73616 22.03 4.53616 21.09C4.15215 20.7859 3.71934 20.5493 3.25616 20.39C2.56616 19.72 2.07616 19.25 1.56616 18.8C-0.433844 17.58 -0.433844 17.57 1.08616 18.8C2.77444 20.1982 4.3279 21.7517 5.72616 23.44C5.95616 24 4.52616 22.29 3.95616 21.88C4.40616 22.64 6.32616 24.8 7.79616 26.8C8.53689 27.7486 9.20543 28.7514 9.79616 29.8C10.2262 30.655 10.7494 31.4599 11.3562 32.2C11.585 32.4946 11.7922 32.8054 11.9762 33.13C12.4862 34.32 13.9162 36.37 15.0662 38.32C15.7362 39.45 16.4062 40.76 16.9262 41.83C17.4996 43.0986 18.1439 44.3338 18.8562 45.53C19.3062 46.29 19.7162 47.08 20.0962 47.88C21.4362 50.73 22.9162 53.37 24.3262 56.37C25.5262 58.37 26.8362 60.71 28.5262 63.27C28.2362 62.58 29.6562 64.65 29.6562 64.33C29.0862 63.5 28.5362 62.65 28.0162 61.81L28.2562 62.05C28.7062 62.84 29.2062 63.63 29.7062 64.41C29.7062 64.18 30.4262 65.24 30.9962 65.97C31.7408 67.0295 32.563 68.0323 33.4562 68.97L35.8462 71.65C36.6262 72.72 37.4162 73.8 38.5462 75.09C38.4762 74.8 39.6762 75.92 38.8762 74.8C38.7362 74.61 39.3862 75.22 39.6562 75.41C40.5362 76.04 41.1662 76.41 41.1262 76.16C41.0862 75.91 40.3162 75.16 38.8862 73.1C39.3262 73.53 39.7662 73.95 40.2262 74.34C39.3684 73.4715 38.6072 72.5126 37.9562 71.48C38.7762 72.3295 39.5067 73.2611 40.1362 74.26V74.22ZM39.1962 73.93C38.7569 73.4695 38.343 72.9854 37.9562 72.48C36.7162 70.75 37.3962 71.37 37.3962 71.21C37.9462 72.05 38.3962 72.8 39.2562 73.93H39.1962ZM31.3262 65.33V65.23C32.3262 66.59 33.3262 67.97 34.3262 69.39V69.49C33.3262 68.08 32.3862 66.7 31.3262 65.33ZM21.3562 50.12C20.8959 49.4222 20.5578 48.6512 20.3562 47.84L21.3562 50.12Z" fill="#0A080B"/>
<defs>
<linearGradient id="paint0_linear_232_87" x1="100.646" y1="60.07" x2="117.826" y2="60.07" gradientUnits="userSpaceOnUse">
<stop stop-color="#C5C3C7"/>
<stop offset="0.86" stop-color="#C5C3C7"/>
<stop offset="1" stop-color="#C5C3C7"/>
</linearGradient>
<linearGradient id="paint1_linear_232_87" x1="13.7862" y1="60.03" x2="31.4162" y2="60.03" gradientUnits="userSpaceOnUse">
<stop stop-color="#C5C3C7"/>
<stop offset="0.53" stop-color="#C7C4C9"/>
<stop offset="0.72" stop-color="#CDCCD0"/>
<stop offset="0.86" stop-color="#D7D7DA"/>
<stop offset="0.97" stop-color="#E8E8EA"/>
<stop offset="1" stop-color="#EDEEEF"/>
</linearGradient>
<linearGradient id="paint2_linear_232_87" x1="65.8062" y1="89.86" x2="117.826" y2="89.86" gradientUnits="userSpaceOnUse">
<stop stop-color="#878589"/>
<stop offset="0.1" stop-color="#8C8C90"/>
<stop offset="0.34" stop-color="#929297"/>
<stop offset="1" stop-color="#939499"/>
</linearGradient>
<linearGradient id="paint3_linear_232_87" x1="13.7862" y1="90.24" x2="65.8062" y2="90.24" gradientUnits="userSpaceOnUse">
<stop stop-color="#878589"/>
<stop offset="0.1" stop-color="#8C8C90"/>
<stop offset="0.34" stop-color="#929297"/>
<stop offset="1" stop-color="#939499"/>
</linearGradient>
</defs>
</svg>
